# xmcd
# Copyright (C) 1995-1998 Ti Kan
#
# Track frame offsets:
#       150
#       14604
#       31917
#       52886
#       72682
#       92667
#       112444
#       129343
#       149261
#       168295
#       186962
#       207652
#       226364
#       245780
#       263263
#       277266
#       295151
#       318364
#
# Disc length: 4505 seconds
#
# Revision: 0
# Processed by: cddbd v1.5.2PL0 Copyright (c) Steve Scherf et al.
# Submitted via: CD-Transfer v1.0
#
DISCID=18119712
DTITLE=Ultravox - B. Curry, C. Cross, W. Cann, M. Ure
DYEAR=1900
DGENRE=
TTITLE0=Sleepwalk
TTITLE1=Passing Strangers
TTITLE2=Vienna
TTITLE3=All Stood Still
TTITLE4=Thin Wall, The
TTITLE5=Voice, The
TTITLE6=Reap The Wild Wind
TTITLE7=Hymn
TTITLE8=Visions In Blue
TTITLE9=We Came To Dance
TTITLE10=One Small Day
TTITLE11=Dancing With Tears In My Eyes
TTITLE12=Lament
TTITLE13=White China
TTITLE14=Love's Great Adventure
TTITLE15=Same Old Story
TTITLE16=All Fall Down
TTITLE17=All In One Day
EXTD=
EXTT0=
EXTT1=
EXTT2=
EXTT3=
EXTT4=
EXTT5=
EXTT6=
EXTT7=
EXTT8=
EXTT9=
EXTT10=
EXTT11=
EXTT12=
EXTT13=
EXTT14=
EXTT15=
EXTT16=
EXTT17=
PLAYORDER=
